<svg width="20" height="16" viewBox="0 0 20 16" fill="none" xmlns="http://www.w3.org/2000/svg">
<path d="M6.45721 11.5717L13.6001 4.42885M0.714355 13.7146C0.714355 14.093 0.864472 14.4559 1.13176 14.7237C1.39906 14.9915 1.76168 15.1424 2.14007 15.1431H17.8601C18.2385 15.1424 18.6011 14.9915 18.8684 14.7237C19.1357 14.4559 19.2858 14.093 19.2858 13.7146V10.8089C18.669 10.6416 18.1244 10.2759 17.7361 9.76831C17.3478 9.2607 17.1374 8.63937 17.1374 8.00028C17.1374 7.36118 17.3478 6.73986 17.7361 6.23225C18.1244 5.72464 18.669 5.35897 19.2858 5.19171V2.28599C19.2858 1.90761 19.1357 1.54468 18.8684 1.27685C18.6011 1.00902 18.2385 0.858179 17.8601 0.857422H2.14007C1.76168 0.858179 1.39906 1.00902 1.13176 1.27685C0.864472 1.54468 0.714355 1.90761 0.714355 2.28599V5.18599C1.3361 5.34952 1.88619 5.71433 2.27873 6.22347C2.67126 6.7326 2.88416 7.35739 2.88416 8.00028C2.88416 8.64317 2.67126 9.26796 2.27873 9.77709C1.88619 10.2862 1.3361 10.651 0.714355 10.8146V13.7146Z" stroke="#31A342" stroke-linecap="round" stroke-linejoin="round"/>
<path d="M7.17156 5.85728C7.361 5.85728 7.54268 5.78203 7.67664 5.64807C7.81059 5.51412 7.88585 5.33244 7.88585 5.143C7.88585 4.95356 7.81059 4.77188 7.67664 4.63792C7.54268 4.50397 7.361 4.42871 7.17156 4.42871C6.98212 4.42871 6.80044 4.50397 6.66648 4.63792C6.53253 4.77188 6.45728 4.95356 6.45728 5.143C6.45728 5.33244 6.53253 5.51412 6.66648 5.64807C6.80044 5.78203 6.98212 5.85728 7.17156 5.85728ZM12.8858 11.5716C13.0753 11.5716 13.257 11.4963 13.3909 11.3624C13.5249 11.2284 13.6001 11.0467 13.6001 10.8573C13.6001 10.6678 13.5249 10.4862 13.3909 10.3522C13.257 10.2183 13.0753 10.143 12.8858 10.143C12.6964 10.143 12.5147 10.2183 12.3808 10.3522C12.2468 10.4862 12.1716 10.6678 12.1716 10.8573C12.1716 11.0467 12.2468 11.2284 12.3808 11.3624C12.5147 11.4963 12.6964 11.5716 12.8858 11.5716Z" stroke="#31A342" stroke-linecap="round" stroke-linejoin="round"/>
</svg>
