<svg width="9" height="9" viewBox="0 0 9 9" fill="none" xmlns="http://www.w3.org/2000/svg">
<path d="M1.66659 4.91667V8.25H4.58325V4.91667H1.66659ZM4.99992 4.91667V8.25H7.91658V4.91667H4.99992ZM8.33325 4.91667V8.66667H1.24992V4.91667H0.833252V2.41667H2.09992L2.08325 2.20833C2.08325 1.82156 2.2369 1.45063 2.51039 1.17714C2.78388 0.903645 3.15481 0.75 3.54159 0.75C4.07075 0.75 4.53742 1.03333 4.79159 1.45833C5.04575 1.03333 5.51242 0.75 6.04158 0.75C6.42836 0.75 6.79929 0.903645 7.07278 1.17714C7.34627 1.45063 7.49992 1.82156 7.49992 2.20833L7.48325 2.41667H8.74992V4.91667H8.33325ZM1.24992 2.83333V4.5H4.58325V2.83333H1.24992ZM8.33325 4.5V2.83333H4.99992V4.5H8.33325ZM7.06242 2.41667L7.08325 2.20833C7.08325 1.93207 6.97351 1.66711 6.77815 1.47176C6.5828 1.27641 6.31785 1.16667 6.04158 1.16667C5.76532 1.16667 5.50037 1.27641 5.30502 1.47176C5.10967 1.66711 4.99992 1.93207 4.99992 2.20833V2.41667H7.06242ZM4.58325 2.41667V2.20833C4.58325 1.93207 4.47351 1.66711 4.27815 1.47176C4.0828 1.27641 3.81785 1.16667 3.54159 1.16667C3.26532 1.16667 3.00037 1.27641 2.80502 1.47176C2.60967 1.66711 2.49992 1.93207 2.49992 2.20833L2.52075 2.41667H4.58325Z" fill="white"/>
</svg>
