<svg width="20" height="20" viewBox="0 0 20 20" fill="none" xmlns="http://www.w3.org/2000/svg">
<path d="M10 15L11.56 11.58L15 10L11.56 8.44L10 5L8.43 8.44L5 10L8.43 11.58L10 15ZM6.17 0.76C7.38508 0.259948 8.68605 0.00179152 10 0C11.31 0 12.61 0.26 13.83 0.76C15.04 1.26 16.14 2 17.07 2.93C18 3.86 18.74 4.96 19.24 6.17C19.74 7.39 20 8.69 20 10C20 12.65 18.95 15.2 17.07 17.07C16.1426 18 15.0406 18.7376 13.8273 19.2404C12.614 19.7432 11.3134 20.0014 10 20C8.68605 19.9982 7.38508 19.74 6.17 19.24C4.95807 18.7363 3.85714 17.9989 2.93 17.07C2.00002 16.1426 1.26244 15.0406 0.759616 13.8273C0.256795 12.614 -0.00135141 11.3134 5.32016e-06 10C5.32016e-06 7.35 1.05 4.8 2.93 2.93C3.86 2 4.96 1.26 6.17 0.76ZM4.34 15.66C5.84 17.16 7.88 18 10 18C12.12 18 14.16 17.16 15.66 15.66C17.16 14.16 18 12.12 18 10C18 7.88 17.16 5.84 15.66 4.34C14.9165 3.59732 14.034 3.00841 13.0628 2.60691C12.0916 2.2054 11.0509 1.99917 10 2C7.88 2 5.84 2.84 4.34 4.34C3.59733 5.0835 3.00842 5.96604 2.60691 6.9372C2.20541 7.90836 1.99918 8.94911 2 10C2 12.12 2.84 14.16 4.34 15.66Z" fill="#31A342"/>
</svg>
